<!-- https://www.svgrepo.com/svg/231174/analytics -->
<svg version="1.1" id="Layer_1" xmlns="http://www.w3.org/2000/svg" xmlns:xlink="http://www.w3.org/1999/xlink"
  viewBox="0 0 512 512" xml:space="preserve" fill="#000000"
  style="--darkreader-inline-fill: var(--darkreader-background-000000, #000000);" data-darkreader-inline-fill="">
  <g id="SVGRepo_bgCarrier" stroke-width="0"></g>
  <g id="SVGRepo_tracerCarrier" stroke-linecap="round" stroke-linejoin="round"></g>
  <g id="SVGRepo_iconCarrier">

    <path style="fill: rgb(50, 74, 94); --darkreader-inline-fill: var(--darkreader-text-324a5e, #a5bdcf);"
      d="M99.556,355.125V156.875c0-8.092,6.561-14.653,14.653-14.653h283.582 c8.092,0,14.653,6.561,14.653,14.653v198.249c0,8.092-6.559,14.653-14.653,14.653H114.209 C106.115,369.778,99.556,363.217,99.556,355.125z"
      data-darkreader-inline-fill=""></path>
    <path style="fill: rgb(43, 59, 78); --darkreader-inline-fill: var(--darkreader-text-2b3b4e, #afc2d3);"
      d="M397.791,142.222h-131.16v227.556h131.16c8.092,0,14.653-6.561,14.653-14.653V156.875 C412.444,148.783,405.885,142.222,397.791,142.222z"
      data-darkreader-inline-fill=""></path>
    <rect x="141.791" y="149.98"
      style="fill: rgb(60, 85, 102); --darkreader-inline-fill: var(--darkreader-text-3c5566, #97b1c2);" width="256"
      height="212.04" data-darkreader-inline-fill=""></rect>
    <rect x="266.636" y="149.98"
      style="fill: rgb(50, 74, 94); --darkreader-inline-fill: var(--darkreader-text-324a5e, #a5bdcf);" width="131.155"
      height="212.04" data-darkreader-inline-fill=""></rect>
    <circle style="fill: rgb(60, 85, 102); --darkreader-inline-fill: var(--darkreader-text-3c5566, #97b1c2);"
      cx="121.104" cy="256" r="11.205" data-darkreader-inline-fill=""></circle>
    <g>
      <rect x="170.667" y="170.667"
        style="fill: rgb(255, 209, 93); --darkreader-inline-fill: var(--darkreader-text-ffd15d, #ffd05b);"
        width="28.444" height="170.667" data-darkreader-inline-fill=""></rect>
      <rect x="227.556" y="227.556"
        style="fill: rgb(255, 209, 93); --darkreader-inline-fill: var(--darkreader-text-ffd15d, #ffd05b);"
        width="28.444" height="113.778" data-darkreader-inline-fill=""></rect>
    </g>
    <g>
      <rect x="341.333" y="284.444"
        style="fill: rgb(249, 181, 76); --darkreader-inline-fill: var(--darkreader-text-f9b54c, #f9b750);"
        width="28.444" height="56.889" data-darkreader-inline-fill=""></rect>
      <rect x="284.444" y="199.111"
        style="fill: rgb(249, 181, 76); --darkreader-inline-fill: var(--darkreader-text-f9b54c, #f9b750);"
        width="28.444" height="142.222" data-darkreader-inline-fill=""></rect>
    </g>
  </g>
</svg>