<!-- https://svgrepo.com/svg/382502/copy-data-document-files-paper -->
<svg viewBox="0 0 32 32" data-name="Layer 1" id="Layer_1" xmlns="http://www.w3.org/2000/svg"
  xmlns:xlink="http://www.w3.org/1999/xlink" fill="#000000">
  <g id="SVGRepo_bgCarrier" stroke-width="0"></g>
  <g id="SVGRepo_tracerCarrier" stroke-linecap="round" stroke-linejoin="round"></g>
  <g id="SVGRepo_iconCarrier">
    <defs>
      <style>
        .cls-1 {
          fill: url(#linear-gradient);
        }

        .cls-2 {
          fill: url(#linear-gradient-2);
        }

        .cls-3 {
          fill: #577590;
        }
      </style>
      <linearGradient gradientUnits="userSpaceOnUse" id="linear-gradient" x1="4" x2="23" y1="14.5" y2="14.5">
        <stop offset="0" stop-color="#f9dcc4"></stop>
        <stop offset="0.01" stop-color="#f8dbc2"></stop>
        <stop offset="0.12" stop-color="#f3ceb1"></stop>
        <stop offset="0.26" stop-color="#f0c5a6"></stop>
        <stop offset="0.46" stop-color="#eebf9f"></stop>
        <stop offset="1" stop-color="#edbe9d"></stop>
      </linearGradient>
      <linearGradient gradientUnits="userSpaceOnUse" id="linear-gradient-2" x1="8.23" x2="28.77" y1="7.23" y2="27.77">
        <stop offset="0" stop-color="#f9dcc4"></stop>
        <stop offset="0.32" stop-color="#f8d9c0"></stop>
        <stop offset="0.64" stop-color="#f4cfb3"></stop>
        <stop offset="0.98" stop-color="#eebf9f"></stop>
        <stop offset="1" stop-color="#edbe9d"></stop>
      </linearGradient>
    </defs>
    <rect class="cls-1" height="25" rx="2.5" width="19" x="4" y="2"></rect>
    <rect class="cls-2" height="25" rx="2.5" width="19" x="9" y="5"></rect>
    <path class="cls-3"
      d="M23.5,10.6a2.54,2.54,0,0,0-1.52.48,1.66,1.66,0,0,1-2,0,2.57,2.57,0,0,0-1.52-.48,2.51,2.51,0,0,0-1.52.48,1.66,1.66,0,0,1-2,0,2.54,2.54,0,0,0-1.52-.48.5.5,0,0,0,0,1,1.51,1.51,0,0,1,1,.32A2.54,2.54,0,0,0,16,12.4a2.57,2.57,0,0,0,1.52-.48,1.66,1.66,0,0,1,2,0A2.54,2.54,0,0,0,21,12.4a2.57,2.57,0,0,0,1.52-.48,1.51,1.51,0,0,1,1-.32.5.5,0,0,0,0-1Z">
    </path>
    <path class="cls-3"
      d="M23.5,16.6a2.54,2.54,0,0,0-1.52.48,1.66,1.66,0,0,1-2,0,2.57,2.57,0,0,0-1.52-.48,2.51,2.51,0,0,0-1.52.48,1.66,1.66,0,0,1-2,0,2.54,2.54,0,0,0-1.52-.48.5.5,0,0,0,0,1,1.51,1.51,0,0,1,1,.32A2.54,2.54,0,0,0,16,18.4a2.57,2.57,0,0,0,1.52-.48,1.66,1.66,0,0,1,2,0A2.54,2.54,0,0,0,21,18.4a2.57,2.57,0,0,0,1.52-.48,1.51,1.51,0,0,1,1-.32.5.5,0,0,0,0-1Z">
    </path>
    <path class="cls-3"
      d="M23.5,22.6a2.54,2.54,0,0,0-1.52.48,1.66,1.66,0,0,1-2,0,2.57,2.57,0,0,0-1.52-.48,2.51,2.51,0,0,0-1.52.48,1.66,1.66,0,0,1-2,0,2.54,2.54,0,0,0-1.52-.48.5.5,0,0,0,0,1,1.51,1.51,0,0,1,1,.32A2.54,2.54,0,0,0,16,24.4a2.57,2.57,0,0,0,1.52-.48,1.66,1.66,0,0,1,2,0A2.54,2.54,0,0,0,21,24.4a2.57,2.57,0,0,0,1.52-.48,1.51,1.51,0,0,1,1-.32.5.5,0,0,0,0-1Z">
    </path>
  </g>
</svg>